# xmcd
#
# Track frame offsets:
# 150
# 6436
# 23546
# 38552
# 70454
# 98375
# 120857
# 160304
# 182150
# 198998
#
# Disc length: 2896 seconds
#
#
# Revision: 0
# Processed by: cddbd v1.5.2PL0 Copyright (c) Steve Scherf et al.
# Submitted via: FreeRIP 2.96 
#
DISCID=710b4e0a
DTITLE=Bodeus Blues Band - Estive Blues
DYEAR=2003
DGENRE=Blues
TTITLE0=Cockroach?
TTITLE1=All Your Love
TTITLE2=Cold Shot
TTITLE3=Blues Nini
TTITLE4=Got My Mojo Working
TTITLE5=Johnny B. Goode
TTITLE6=The Last But One(Improvisation)
TTITLE7=Estive Blues!
TTITLE8=Boy Scout Plan
TTITLE9=Highway
EXTD=www.formiganegocios.com.br/bodeus - (37)3321-1022
EXTT0=Bodeus e Jorge B.
EXTT1=Rush
EXTT2=Stevie Ray Vaughan
EXTT3=Bodeus
EXTT4=Muddy Waters
EXTT5=Up Wilson
EXTT6=Bodeus e B. Band
EXTT7=Stevie Ray Vaughan(versão instrumental de Bodeus)
EXTT8=Paul Orta
EXTT9=F. King
PLAYORDER=
